<?xml version="1.0" encoding="utf-8"?>
<!-- Generator: Adobe Illustrator 22.0.1, SVG Export Plug-In . SVG Version: 6.00 Build 0)  -->
<svg version="1.1" baseProfile="tiny" id="Camada_1"
	 xmlns="http://www.w3.org/2000/svg" xmlns:xlink="http://www.w3.org/1999/xlink" x="0px" y="0px" viewBox="0 0 220 41.6"
	 xml:space="preserve">
<g>
	<g>
		<g>
			<polygon fill-rule="evenodd" fill="#FFFFFF" points="138.9,16.7 144.2,19.6 144.2,25.6 139,28.6 133.8,25.7 133.8,19.7 
				138.9,16.7 			"/>
			<polygon fill-rule="evenodd" fill="#FFFFFF" points="133.3,41.6 139.4,37.9 139.4,30.8 133.2,27.2 127,30.9 127,38 133.3,41.6 
							"/>
			<polygon fill-rule="evenodd" fill="#FFFFFF" points="121.9,29 126,31.3 126,36 122,38.3 118,36 117.9,31.4 121.9,29 			"/>
			<polygon fill-rule="evenodd" fill="#FFFFFF" points="112.2,16.7 118.3,20.2 118.4,27.3 112.3,30.9 106.1,27.4 106,20.3 
				112.2,16.7 			"/>
			<polygon fill-rule="evenodd" fill="#FFFFFF" points="118.4,7.2 123.4,10 123.5,15.7 118.5,18.7 113.5,15.8 113.5,10.1 118.4,7.2 
							"/>
			<polygon fill-rule="evenodd" fill="#FFFFFF" points="133.6,18.6 141.7,13.9 141.6,4.6 133.5,0 125.5,4.7 125.6,14 133.6,18.6 			
				"/>
		</g>
		<g>
			<g>
				<path fill="#FFFFFF" d="M155.2,7.2v15.5c0,4.7,1.8,7,4.9,7c3.2,0,5-2.2,5-7V7.2h6.1v15.1c0,8.3-4.2,12.3-11.2,12.3
					c-6.8,0-10.7-3.8-10.7-12.4v-15H155.2z"/>
				<path fill="#FFFFFF" d="M176.5,7.2h16.4v5h-10.4v6.2h9.7v5h-9.7v10.8h-6.1V7.2z"/>
				<path fill="#FFFFFF" d="M220,32.9c-1.9,0.6-5.4,1.5-9,1.5c-4.9,0-8.5-1.2-11-3.6c-2.4-2.4-3.8-5.9-3.8-9.8
					c0-9,6.6-14.1,15.4-14.1c3.5,0,6.2,0.7,7.5,1.3l-1.3,4.9c-1.5-0.7-3.3-1.2-6.2-1.2c-5.1,0-9,2.9-9,8.7c0,5.6,3.5,8.8,8.5,8.8
					c1.4,0,2.5-0.2,3-0.4v-5.7H210v-4.8h10V32.9z"/>
			</g>
		</g>
	</g>
	<g>
		<g>
			<path fill="#FFFFFF" d="M20.5,33.4c-1.1,0.6-3.7,1.2-6.9,1.2C5.1,34.6,0,29.3,0,21.2C0,12.4,6.1,7.1,14.3,7.1
				c3.2,0,5.5,0.7,6.4,1.2l-1,3.9c-1.3-0.6-3-1-5.2-1c-5.4,0-9.3,3.4-9.3,9.8c0,5.9,3.4,9.6,9.3,9.6c1.9,0,4-0.4,5.3-0.9L20.5,33.4z
				"/>
			<path fill="#FFFFFF" d="M33.5,7.5v26.6h-4.9V7.5H33.5z"/>
			<path fill="#FFFFFF" d="M48.3,26.6l-2.3,7.5h-5l8.5-26.6h6.2l8.7,26.6h-5.3l-2.4-7.5H48.3z M56,22.9l-2.1-6.6
				c-0.5-1.6-0.9-3.4-1.3-5h-0.1c-0.4,1.5-0.8,3.4-1.3,5l-2.1,6.6H56z"/>
			<path fill="#FFFFFF" d="M72.1,7.9c1.9-0.4,4.5-0.6,7.4-0.6c3.8,0,6.4,0.6,8.2,2.1c1.5,1.2,2.3,3.1,2.3,5.4c0,3.4-2.3,5.8-4.9,6.6
				v0.1c1.9,0.7,3.1,2.6,3.7,5.1c0.9,3.3,1.6,6.4,2.1,7.4h-5c-0.4-0.8-1.1-3-1.8-6.3c-0.8-3.5-2-4.6-4.8-4.7h-2.4v10.9h-4.8V7.9z
				 M76.9,19.7h2.9c3.3,0,5.3-1.7,5.3-4.4c0-2.9-2-4.3-5.2-4.3c-1.5,0-2.5,0.1-3,0.2V19.7z"/>
		</g>
	</g>
</g>
</svg>
